<?xml version="1.0" encoding="UTF-8" standalone="no"?>
<!DOCTYPE svg PUBLIC "-//W3C//DTD SVG 1.1//EN"
 "http://www.w3.org/Graphics/SVG/1.1/DTD/svg11.dtd">
<!-- Generated by graphviz version 2.40.1 (20161225.0304)
 -->
<!-- Title: dependencies Pages: 1 -->
<svg width="1149pt" height="284pt"
 viewBox="0.00 0.00 1149.00 284.00" xmlns="http://www.w3.org/2000/svg" xmlns:xlink="http://www.w3.org/1999/xlink">
<g id="graph0" class="graph" transform="scale(1 1) rotate(0) translate(4 280)">
<title>dependencies</title>
<polygon fill="#ffffff" stroke="transparent" points="-4,4 -4,-280 1145,-280 1145,4 -4,4"/>
<text text-anchor="start" x="549.5091" y="-42.4" font-family="sans-serif" font-weight="bold" font-size="14.00" fill="#000000">Legend</text>
<polygon fill="#ffffb3" stroke="transparent" points="336.5,-10 336.5,-30 356.5,-30 356.5,-10 336.5,-10"/>
<text text-anchor="start" x="360.129" y="-15.4" font-family="sans-serif" font-size="14.00" fill="#000000"> &#160;Declarations</text>
<polygon fill="#8dd3c7" stroke="transparent" points="449.5,-10 449.5,-30 469.5,-30 469.5,-10 449.5,-10"/>
<text text-anchor="start" x="473.2251" y="-15.4" font-family="sans-serif" font-size="14.00" fill="#000000"> &#160;Module</text>
<polygon fill="#80b1d3" stroke="transparent" points="535.5,-10 535.5,-30 555.5,-30 555.5,-10 535.5,-10"/>
<text text-anchor="start" x="559.2812" y="-15.4" font-family="sans-serif" font-size="14.00" fill="#000000"> &#160;Bootstrap</text>
<polygon fill="#fdb462" stroke="transparent" points="632.5,-10 632.5,-30 652.5,-30 652.5,-10 632.5,-10"/>
<text text-anchor="start" x="656.1732" y="-15.4" font-family="sans-serif" font-size="14.00" fill="#000000"> &#160;Providers</text>
<polygon fill="#fb8072" stroke="transparent" points="728.5,-10 728.5,-30 748.5,-30 748.5,-10 728.5,-10"/>
<text text-anchor="start" x="752.2258" y="-15.4" font-family="sans-serif" font-size="14.00" fill="#000000"> &#160;Exports</text>
<g id="clust1" class="cluster">
<title>cluster_AppModule</title>
<polygon fill="none" stroke="#000000" stroke-dasharray="1,5" points="8,-70 8,-268 1133,-268 1133,-70 8,-70"/>
</g>
<g id="clust2" class="cluster">
<title>cluster_AppModule_declarations</title>
<polygon fill="none" stroke="#000000" points="382,-78 382,-130 1125,-130 1125,-78 382,-78"/>
</g>
<g id="clust8" class="cluster">
<title>cluster_AppModule_imports</title>
<polygon fill="none" stroke="#000000" points="16,-78 16,-130 374,-130 374,-78 16,-78"/>
</g>
<g id="clust10" class="cluster">
<title>cluster_AppModule_bootstrap</title>
<polygon fill="none" stroke="#000000" points="548,-208 548,-260 672,-260 672,-208 548,-208"/>
</g>
<!-- AppComponent -->
<g id="node1" class="node">
<title>AppComponent</title>
<polygon fill="#ffffb3" stroke="#000000" points="1116.9399,-122 1011.0601,-122 1011.0601,-86 1116.9399,-86 1116.9399,-122"/>
<text text-anchor="middle" x="1064" y="-99.8" font-family="Times,serif" font-size="14.00" fill="#000000">AppComponent</text>
</g>
<!-- AppModule -->
<g id="node6" class="node">
<title>AppModule</title>
<polygon fill="#8dd3c7" stroke="#000000" points="651.6571,-187 648.6571,-191 627.6571,-191 624.6571,-187 568.3429,-187 568.3429,-151 651.6571,-151 651.6571,-187"/>
<text text-anchor="middle" x="610" y="-164.8" font-family="Times,serif" font-size="14.00" fill="#000000">AppModule</text>
</g>
<!-- AppComponent&#45;&gt;AppModule -->
<g id="edge1" class="edge">
<title>AppComponent&#45;&gt;AppModule</title>
<path fill="none" stroke="#000000" d="M1064,-122.0109C1064,-144.4852 1064,-180 1064,-180 1064,-180 661.8975,-180 661.8975,-180"/>
<polygon fill="#000000" stroke="#000000" points="661.8975,-176.5001 651.8975,-180 661.8974,-183.5001 661.8975,-176.5001"/>
</g>
<!-- AppRoutingModule -->
<g id="node2" class="node">
<title>AppRoutingModule</title>
<polygon fill="#ffffb3" stroke="#000000" points="993.2744,-122 990.2744,-126 969.2744,-126 966.2744,-122 864.7256,-122 864.7256,-86 993.2744,-86 993.2744,-122"/>
<text text-anchor="middle" x="929" y="-99.8" font-family="Times,serif" font-size="14.00" fill="#000000">AppRoutingModule</text>
</g>
<!-- AppRoutingModule&#45;&gt;AppModule -->
<g id="edge2" class="edge">
<title>AppRoutingModule&#45;&gt;AppModule</title>
<path fill="none" stroke="#000000" d="M907.5376,-122.2667C907.5376,-140.5552 907.5376,-166 907.5376,-166 907.5376,-166 661.6846,-166 661.6846,-166"/>
<polygon fill="#000000" stroke="#000000" points="661.6847,-162.5001 651.6846,-166 661.6846,-169.5001 661.6847,-162.5001"/>
</g>
<!-- AppRoutingModule&#45;&gt;AppModule -->
<g id="edge7" class="edge">
<title>AppRoutingModule&#45;&gt;AppModule</title>
<path fill="none" stroke="#000000" d="M950.4624,-122.1289C950.4624,-142.5724 950.4624,-173 950.4624,-173 950.4624,-173 661.7474,-173 661.7474,-173"/>
<polygon fill="#000000" stroke="#000000" points="661.7474,-169.5001 651.7474,-173 661.7473,-176.5001 661.7474,-169.5001"/>
</g>
<!-- NamingTaskComponent -->
<g id="node3" class="node">
<title>NamingTaskComponent</title>
<polygon fill="#ffffb3" stroke="#000000" points="846.647,-122 693.353,-122 693.353,-86 846.647,-86 846.647,-122"/>
<text text-anchor="middle" x="770" y="-99.8" font-family="Times,serif" font-size="14.00" fill="#000000">NamingTaskComponent</text>
</g>
<!-- NamingTaskComponent&#45;&gt;AppModule -->
<g id="edge3" class="edge">
<title>NamingTaskComponent&#45;&gt;AppModule</title>
<path fill="none" stroke="#000000" d="M770,-122.0091C770,-138.0494 770,-159 770,-159 770,-159 662.0381,-159 662.0381,-159"/>
<polygon fill="#000000" stroke="#000000" points="662.0382,-155.5001 652.0381,-159 662.0381,-162.5001 662.0382,-155.5001"/>
</g>
<!-- DnDtaskComponent -->
<g id="node4" class="node">
<title>DnDtaskComponent</title>
<polygon fill="#ffffb3" stroke="#000000" points="675.5954,-122 544.4046,-122 544.4046,-86 675.5954,-86 675.5954,-122"/>
<text text-anchor="middle" x="610" y="-99.8" font-family="Times,serif" font-size="14.00" fill="#000000">DnDtaskComponent</text>
</g>
<!-- DnDtaskComponent&#45;&gt;AppModule -->
<g id="edge4" class="edge">
<title>DnDtaskComponent&#45;&gt;AppModule</title>
<path fill="none" stroke="#000000" d="M610,-122.1061C610,-122.1061 610,-140.991 610,-140.991"/>
<polygon fill="#000000" stroke="#000000" points="606.5001,-140.9909 610,-150.991 613.5001,-140.991 606.5001,-140.9909"/>
</g>
<!-- OverviewComponent -->
<g id="node5" class="node">
<title>OverviewComponent</title>
<polygon fill="#ffffb3" stroke="#000000" points="526.0268,-122 389.9732,-122 389.9732,-86 526.0268,-86 526.0268,-122"/>
<text text-anchor="middle" x="458" y="-99.8" font-family="Times,serif" font-size="14.00" fill="#000000">OverviewComponent</text>
</g>
<!-- OverviewComponent&#45;&gt;AppModule -->
<g id="edge5" class="edge">
<title>OverviewComponent&#45;&gt;AppModule</title>
<path fill="none" stroke="#000000" d="M458,-122.0091C458,-138.0494 458,-159 458,-159 458,-159 558.063,-159 558.063,-159"/>
<polygon fill="#000000" stroke="#000000" points="558.063,-162.5001 568.063,-159 558.0629,-155.5001 558.063,-162.5001"/>
</g>
<!-- AppComponent  -->
<g id="node10" class="node">
<title>AppComponent </title>
<polygon fill="#80b1d3" stroke="#000000" points="664.439,-252 555.561,-252 555.561,-216 664.439,-216 664.439,-252"/>
<text text-anchor="middle" x="610" y="-229.8" font-family="Times,serif" font-size="14.00" fill="#000000">AppComponent </text>
</g>
<!-- AppModule&#45;&gt;AppComponent  -->
<g id="edge10" class="edge">
<title>AppModule&#45;&gt;AppComponent </title>
<path fill="none" stroke="#000000" stroke-dasharray="1,5" d="M610,-187.1061C610,-187.1061 610,-205.991 610,-205.991"/>
<polygon fill="#000000" stroke="#000000" points="606.5001,-205.9909 610,-215.991 613.5001,-205.991 606.5001,-205.9909"/>
</g>
<!-- BrowserModule -->
<g id="node7" class="node">
<title>BrowserModule</title>
<polygon fill="#8dd3c7" stroke="#000000" points="366.4734,-122 363.4734,-126 342.4734,-126 339.4734,-122 259.5266,-122 259.5266,-86 366.4734,-86 366.4734,-122"/>
<text text-anchor="middle" x="313" y="-99.8" font-family="Times,serif" font-size="14.00" fill="#000000">BrowserModule</text>
</g>
<!-- BrowserModule&#45;&gt;AppModule -->
<g id="edge6" class="edge">
<title>BrowserModule&#45;&gt;AppModule</title>
<path fill="none" stroke="#000000" d="M313,-122.2667C313,-140.5552 313,-166 313,-166 313,-166 558.0771,-166 558.0771,-166"/>
<polygon fill="#000000" stroke="#000000" points="558.0771,-169.5001 568.0771,-166 558.077,-162.5001 558.0771,-169.5001"/>
</g>
<!-- FormsModule -->
<g id="node8" class="node">
<title>FormsModule</title>
<polygon fill="#8dd3c7" stroke="#000000" points="241.8288,-122 238.8288,-126 217.8288,-126 214.8288,-122 146.1712,-122 146.1712,-86 241.8288,-86 241.8288,-122"/>
<text text-anchor="middle" x="194" y="-99.8" font-family="Times,serif" font-size="14.00" fill="#000000">FormsModule</text>
</g>
<!-- FormsModule&#45;&gt;AppModule -->
<g id="edge8" class="edge">
<title>FormsModule&#45;&gt;AppModule</title>
<path fill="none" stroke="#000000" d="M194,-122.1289C194,-142.5724 194,-173 194,-173 194,-173 558.2076,-173 558.2076,-173"/>
<polygon fill="#000000" stroke="#000000" points="558.2077,-176.5001 568.2076,-173 558.2076,-169.5001 558.2077,-176.5001"/>
</g>
<!-- DragulaModule -->
<g id="node9" class="node">
<title>DragulaModule</title>
<polygon fill="#8dd3c7" stroke="#000000" points="128.1374,-122 125.1374,-126 104.1374,-126 101.1374,-122 23.8626,-122 23.8626,-86 128.1374,-86 128.1374,-122"/>
<text text-anchor="middle" x="76" y="-99.8" font-family="Times,serif" font-size="14.00" fill="#000000">DragulaModule</text>
</g>
<!-- DragulaModule&#45;&gt;AppModule -->
<g id="edge9" class="edge">
<title>DragulaModule&#45;&gt;AppModule</title>
<path fill="none" stroke="#000000" d="M76,-122.0109C76,-144.4852 76,-180 76,-180 76,-180 558.0979,-180 558.0979,-180"/>
<polygon fill="#000000" stroke="#000000" points="558.098,-183.5001 568.0979,-180 558.0979,-176.5001 558.098,-183.5001"/>
</g>
</g>
</svg>
